<svg xmlns="http://www.w3.org/2000/svg" width="60" height="23.868" viewBox="0 0 60 23.868"><g transform="translate(-2630 -2319.014)"><path d="M554.9,376.381l-3.41,4.364a1.064,1.064,0,0,1-.887.477h-4.228c-.546,0-.682-.409-.341-.818l6.069-7.16-5.728-6.819c-.341-.375-.2-.818.341-.818h4.331c.477,0,.614.2.852.511l3,4.023,2.694,3.072m0-.276" transform="translate(2084.154 1961.318)" fill="#1f2935"/><path d="M602.434,419.2a2.711,2.711,0,1,1,2.693-2.693A2.678,2.678,0,0,1,602.434,419.2Z" transform="translate(2042.048 1923.686)" fill="#1f2935"/><path d="M639.308,353.309c-6.956,0-12.445-4.705-12.445-11.9s5.49-11.968,12.445-11.968,12.411,4.808,12.411,11.968S646.264,353.309,639.308,353.309Zm0-19.265a7.349,7.349,0,1,0,7.195,7.365A7.137,7.137,0,0,0,639.308,334.044Z" transform="translate(2020.858 1989.573)" fill="#25ad79"/><path d="M753.694,366.078a6.321,6.321,0,0,1,4.671-1.875,6.633,6.633,0,0,1,4.569,1.534,6.343,6.343,0,0,1,1.807,4.91v8.968a.5.5,0,0,1-.511.511h-3.512a.524.524,0,0,1-.511-.511v-7.808a4.419,4.419,0,0,0-.784-2.966,2.586,2.586,0,0,0-2.046-.784c-2.66,0-3.648,2.489-3.648,4.739v6.82a.524.524,0,0,1-.511.511h-3.478a.5.5,0,0,1-.511-.511V365.021a.483.483,0,0,1,.511-.511h3.341a.5.5,0,0,1,.512.511v1.057Z" transform="translate(1925.259 1962.414)" fill="#25ad79"/></g></svg>